<svg id="visual" viewBox="0 0 900 200" width="900" height="200" xmlns="http://www.w3.org/2000/svg" xmlns:xlink="http://www.w3.org/1999/xlink" version="1.1"><path d="M0 85L30 81.3C60 77.7 120 70.3 180 68C240 65.7 300 68.3 360 70C420 71.7 480 72.3 540 71.3C600 70.3 660 67.7 720 71C780 74.3 840 83.7 870 88.3L900 93L900 0L870 0C840 0 780 0 720 0C660 0 600 0 540 0C480 0 420 0 360 0C300 0 240 0 180 0C120 0 60 0 30 0L0 0Z" fill="#ffffff"></path><path d="M0 135L30 132.7C60 130.3 120 125.7 180 124.7C240 123.7 300 126.3 360 126.3C420 126.3 480 123.7 540 121.7C600 119.7 660 118.3 720 120.3C780 122.3 840 127.7 870 130.3L900 133L900 91L870 86.3C840 81.7 780 72.3 720 69C660 65.7 600 68.3 540 69.3C480 70.3 420 69.7 360 68C300 66.3 240 63.7 180 66C120 68.3 60 75.7 30 79.3L0 83Z" fill="#adeffe"></path><path d="M0 201L30 201C60 201 120 201 180 201C240 201 300 201 360 201C420 201 480 201 540 201C600 201 660 201 720 201C780 201 840 201 870 201L900 201L900 131L870 128.3C840 125.7 780 120.3 720 118.3C660 116.3 600 117.7 540 119.7C480 121.7 420 124.3 360 124.3C300 124.3 240 121.7 180 122.7C120 123.7 60 128.3 30 130.7L0 133Z" fill="#00ddfc"></path></svg>