<svg id="visual" viewBox="0 0 900 200" width="900" height="200" xmlns="http://www.w3.org/2000/svg" xmlns:xlink="http://www.w3.org/1999/xlink" version="1.1"><rect x="0" y="0" width="900" height="200" fill="#001220"></rect><path d="M0 128L12.5 124.2C25 120.3 50 112.7 75 111.5C100 110.3 125 115.7 150 114.3C175 113 200 105 225 102.8C250 100.7 275 104.3 300 108C325 111.7 350 115.3 375 116.5C400 117.7 425 116.3 450 116.3C475 116.3 500 117.7 525 114.7C550 111.7 575 104.3 600 102.2C625 100 650 103 675 108.5C700 114 725 122 750 121.5C775 121 800 112 825 109.7C850 107.3 875 111.7 887.5 113.8L900 116L900 201L887.5 201C875 201 850 201 825 201C800 201 775 201 750 201C725 201 700 201 675 201C650 201 625 201 600 201C575 201 550 201 525 201C500 201 475 201 450 201C425 201 400 201 375 201C350 201 325 201 300 201C275 201 250 201 225 201C200 201 175 201 150 201C125 201 100 201 75 201C50 201 25 201 12.5 201L0 201Z" fill="#fa7268"></path><path d="M0 139L12.5 134.7C25 130.3 50 121.7 75 119.8C100 118 125 123 150 124C175 125 200 122 225 124.2C250 126.3 275 133.7 300 136.3C325 139 350 137 375 133C400 129 425 123 450 123C475 123 500 129 525 129.3C550 129.7 575 124.3 600 123.7C625 123 650 127 675 127.7C700 128.3 725 125.7 750 124.2C775 122.7 800 122.3 825 124.5C850 126.7 875 131.3 887.5 133.7L900 136L900 201L887.5 201C875 201 850 201 825 201C800 201 775 201 750 201C725 201 700 201 675 201C650 201 625 201 600 201C575 201 550 201 525 201C500 201 475 201 450 201C425 201 400 201 375 201C350 201 325 201 300 201C275 201 250 201 225 201C200 201 175 201 150 201C125 201 100 201 75 201C50 201 25 201 12.5 201L0 201Z" fill="#f16367"></path><path d="M0 129L12.5 130.7C25 132.3 50 135.7 75 138.2C100 140.7 125 142.3 150 140.8C175 139.3 200 134.7 225 134.5C250 134.3 275 138.7 300 141.8C325 145 350 147 375 145C400 143 425 137 450 136.7C475 136.3 500 141.7 525 144.2C550 146.7 575 146.3 600 146.3C625 146.3 650 146.7 675 147.2C700 147.7 725 148.3 750 149.3C775 150.3 800 151.7 825 152.5C850 153.3 875 153.7 887.5 153.8L900 154L900 201L887.5 201C875 201 850 201 825 201C800 201 775 201 750 201C725 201 700 201 675 201C650 201 625 201 600 201C575 201 550 201 525 201C500 201 475 201 450 201C425 201 400 201 375 201C350 201 325 201 300 201C275 201 250 201 225 201C200 201 175 201 150 201C125 201 100 201 75 201C50 201 25 201 12.5 201L0 201Z" fill="#e85467"></path><path d="M0 152L12.5 154C25 156 50 160 75 158.5C100 157 125 150 150 148.8C175 147.7 200 152.3 225 153.5C250 154.7 275 152.3 300 153.3C325 154.3 350 158.7 375 159.3C400 160 425 157 450 155.7C475 154.3 500 154.7 525 153.2C550 151.7 575 148.3 600 148C625 147.7 650 150.3 675 152C700 153.7 725 154.3 750 152.8C775 151.3 800 147.7 825 145.7C850 143.7 875 143.3 887.5 143.2L900 143L900 201L887.5 201C875 201 850 201 825 201C800 201 775 201 750 201C725 201 700 201 675 201C650 201 625 201 600 201C575 201 550 201 525 201C500 201 475 201 450 201C425 201 400 201 375 201C350 201 325 201 300 201C275 201 250 201 225 201C200 201 175 201 150 201C125 201 100 201 75 201C50 201 25 201 12.5 201L0 201Z" fill="#de4467"></path><path d="M0 171L12.5 170.8C25 170.7 50 170.3 75 170.3C100 170.3 125 170.7 150 171C175 171.3 200 171.7 225 170.8C250 170 275 168 300 167.2C325 166.3 350 166.7 375 166.5C400 166.3 425 165.7 450 167.3C475 169 500 173 525 174.7C550 176.3 575 175.7 600 175.8C625 176 650 177 675 177.2C700 177.3 725 176.7 750 176.3C775 176 800 176 825 174.5C850 173 875 170 887.5 168.5L900 167L900 201L887.5 201C875 201 850 201 825 201C800 201 775 201 750 201C725 201 700 201 675 201C650 201 625 201 600 201C575 201 550 201 525 201C500 201 475 201 450 201C425 201 400 201 375 201C350 201 325 201 300 201C275 201 250 201 225 201C200 201 175 201 150 201C125 201 100 201 75 201C50 201 25 201 12.5 201L0 201Z" fill="#d23467"></path><path d="M0 180L12.5 181C25 182 50 184 75 183.8C100 183.7 125 181.3 150 180.5C175 179.7 200 180.3 225 180.8C250 181.3 275 181.7 300 182.3C325 183 350 184 375 182.8C400 181.7 425 178.3 450 178.3C475 178.3 500 181.7 525 181.8C550 182 575 179 600 177.5C625 176 650 176 675 176.2C700 176.3 725 176.7 750 177.8C775 179 800 181 825 181.3C850 181.7 875 180.3 887.5 179.7L900 179L900 201L887.5 201C875 201 850 201 825 201C800 201 775 201 750 201C725 201 700 201 675 201C650 201 625 201 600 201C575 201 550 201 525 201C500 201 475 201 450 201C425 201 400 201 375 201C350 201 325 201 300 201C275 201 250 201 225 201C200 201 175 201 150 201C125 201 100 201 75 201C50 201 25 201 12.5 201L0 201Z" fill="#c62368"></path></svg>