<svg id="visual" viewBox="0 0 960 540" width="960" height="540" xmlns="http://www.w3.org/2000/svg" xmlns:xlink="http://www.w3.org/1999/xlink" version="1.1"><path d="M0 60L11.5 61.8C23 63.7 46 67.3 68.8 70.2C91.7 73 114.3 75 137.2 75C160 75 183 73 205.8 73C228.7 73 251.3 75 274.2 76C297 77 320 77 342.8 74.2C365.7 71.3 388.3 65.7 411.2 63.8C434 62 457 64 480 65C503 66 526 66 548.8 64.2C571.7 62.3 594.3 58.7 617.2 59.5C640 60.3 663 65.7 685.8 69.3C708.7 73 731.3 75 754.2 73.2C777 71.3 800 65.7 822.8 64.7C845.7 63.7 868.3 67.3 891.2 70.2C914 73 937 75 948.5 76L960 77L960 0L948.5 0C937 0 914 0 891.2 0C868.3 0 845.7 0 822.8 0C800 0 777 0 754.2 0C731.3 0 708.7 0 685.8 0C663 0 640 0 617.2 0C594.3 0 571.7 0 548.8 0C526 0 503 0 480 0C457 0 434 0 411.2 0C388.3 0 365.7 0 342.8 0C320 0 297 0 274.2 0C251.3 0 228.7 0 205.8 0C183 0 160 0 137.2 0C114.3 0 91.7 0 68.8 0C46 0 23 0 11.5 0L0 0Z" fill="#161616"></path><path d="M0 114L11.5 115C23 116 46 118 68.8 119C91.7 120 114.3 120 137.2 119C160 118 183 116 205.8 117.8C228.7 119.7 251.3 125.3 274.2 128.2C297 131 320 131 342.8 127.3C365.7 123.7 388.3 116.3 411.2 114.5C434 112.7 457 116.3 480 117.2C503 118 526 116 548.8 113.3C571.7 110.7 594.3 107.3 617.2 108.3C640 109.3 663 114.7 685.8 120C708.7 125.3 731.3 130.7 754.2 128.8C777 127 800 118 822.8 115.3C845.7 112.7 868.3 116.3 891.2 120C914 123.7 937 127.3 948.5 129.2L960 131L960 75L948.5 74C937 73 914 71 891.2 68.2C868.3 65.3 845.7 61.7 822.8 62.7C800 63.7 777 69.3 754.2 71.2C731.3 73 708.7 71 685.8 67.3C663 63.7 640 58.3 617.2 57.5C594.3 56.7 571.7 60.3 548.8 62.2C526 64 503 64 480 63C457 62 434 60 411.2 61.8C388.3 63.7 365.7 69.3 342.8 72.2C320 75 297 75 274.2 74C251.3 73 228.7 71 205.8 71C183 71 160 73 137.2 73C114.3 73 91.7 71 68.8 68.2C46 65.3 23 61.7 11.5 59.8L0 58Z" fill="#554217"></path><path d="M0 276L11.5 275.2C23 274.3 46 272.7 68.8 273.7C91.7 274.7 114.3 278.3 137.2 277.5C160 276.7 183 271.3 205.8 269.5C228.7 267.7 251.3 269.3 274.2 268.3C297 267.3 320 263.7 342.8 257.3C365.7 251 388.3 242 411.2 237.5C434 233 457 233 480 237.5C503 242 526 251 548.8 257.3C571.7 263.7 594.3 267.3 617.2 269.2C640 271 663 271 685.8 273.7C708.7 276.3 731.3 281.7 754.2 274.5C777 267.3 800 247.7 822.8 245C845.7 242.3 868.3 256.7 891.2 259.3C914 262 937 253 948.5 248.5L960 244L960 129L948.5 127.2C937 125.3 914 121.7 891.2 118C868.3 114.3 845.7 110.7 822.8 113.3C800 116 777 125 754.2 126.8C731.3 128.7 708.7 123.3 685.8 118C663 112.7 640 107.3 617.2 106.3C594.3 105.3 571.7 108.7 548.8 111.3C526 114 503 116 480 115.2C457 114.3 434 110.7 411.2 112.5C388.3 114.3 365.7 121.7 342.8 125.3C320 129 297 129 274.2 126.2C251.3 123.3 228.7 117.7 205.8 115.8C183 114 160 116 137.2 117C114.3 118 91.7 118 68.8 117C46 116 23 114 11.5 113L0 112Z" fill="#9a7503"></path><path d="M0 395L11.5 399.5C23 404 46 413 68.8 416.7C91.7 420.3 114.3 418.7 137.2 410.7C160 402.7 183 388.3 205.8 385.7C228.7 383 251.3 392 274.2 396.5C297 401 320 401 342.8 399.2C365.7 397.3 388.3 393.7 411.2 390.8C434 388 457 386 480 386C503 386 526 388 548.8 388C571.7 388 594.3 386 617.2 386.8C640 387.7 663 391.3 685.8 391.3C708.7 391.3 731.3 387.7 754.2 385.8C777 384 800 384 822.8 384C845.7 384 868.3 384 891.2 385.8C914 387.7 937 391.3 948.5 393.2L960 395L960 242L948.5 246.5C937 251 914 260 891.2 257.3C868.3 254.7 845.7 240.3 822.8 243C800 245.7 777 265.3 754.2 272.5C731.3 279.7 708.7 274.3 685.8 271.7C663 269 640 269 617.2 267.2C594.3 265.3 571.7 261.7 548.8 255.3C526 249 503 240 480 235.5C457 231 434 231 411.2 235.5C388.3 240 365.7 249 342.8 255.3C320 261.7 297 265.3 274.2 266.3C251.3 267.3 228.7 265.7 205.8 267.5C183 269.3 160 274.7 137.2 275.5C114.3 276.3 91.7 272.7 68.8 271.7C46 270.7 23 272.3 11.5 273.2L0 274Z" fill="#9a7503"></path><path d="M0 444L11.5 448.5C23 453 46 462 68.8 465.5C91.7 469 114.3 467 137.2 461.5C160 456 183 447 205.8 445.3C228.7 443.7 251.3 449.3 274.2 452.2C297 455 320 455 342.8 452.2C365.7 449.3 388.3 443.7 411.2 442.7C434 441.7 457 445.3 480 447.2C503 449 526 449 548.8 447.2C571.7 445.3 594.3 441.7 617.2 441.7C640 441.7 663 445.3 685.8 447.2C708.7 449 731.3 449 754.2 446.3C777 443.7 800 438.3 822.8 438.3C845.7 438.3 868.3 443.7 891.2 447.3C914 451 937 453 948.5 454L960 455L960 393L948.5 391.2C937 389.3 914 385.7 891.2 383.8C868.3 382 845.7 382 822.8 382C800 382 777 382 754.2 383.8C731.3 385.7 708.7 389.3 685.8 389.3C663 389.3 640 385.7 617.2 384.8C594.3 384 571.7 386 548.8 386C526 386 503 384 480 384C457 384 434 386 411.2 388.8C388.3 391.7 365.7 395.3 342.8 397.2C320 399 297 399 274.2 394.5C251.3 390 228.7 381 205.8 383.7C183 386.3 160 400.7 137.2 408.7C114.3 416.7 91.7 418.3 68.8 414.7C46 411 23 402 11.5 397.5L0 393Z" fill="#554217"></path><path d="M0 541L11.5 541C23 541 46 541 68.8 541C91.7 541 114.3 541 137.2 541C160 541 183 541 205.8 541C228.7 541 251.3 541 274.2 541C297 541 320 541 342.8 541C365.7 541 388.3 541 411.2 541C434 541 457 541 480 541C503 541 526 541 548.8 541C571.7 541 594.3 541 617.2 541C640 541 663 541 685.8 541C708.7 541 731.3 541 754.2 541C777 541 800 541 822.8 541C845.7 541 868.3 541 891.2 541C914 541 937 541 948.5 541L960 541L960 453L948.5 452C937 451 914 449 891.2 445.3C868.3 441.7 845.7 436.3 822.8 436.3C800 436.3 777 441.7 754.2 444.3C731.3 447 708.7 447 685.8 445.2C663 443.3 640 439.7 617.2 439.7C594.3 439.7 571.7 443.3 548.8 445.2C526 447 503 447 480 445.2C457 443.3 434 439.7 411.2 440.7C388.3 441.7 365.7 447.3 342.8 450.2C320 453 297 453 274.2 450.2C251.3 447.3 228.7 441.7 205.8 443.3C183 445 160 454 137.2 459.5C114.3 465 91.7 467 68.8 463.5C46 460 23 451 11.5 446.5L0 442Z" fill="#161616"></path></svg>