<svg id="visual" viewBox="0 0 900 600" width="900" height="600" xmlns="http://www.w3.org/2000/svg" xmlns:xlink="http://www.w3.org/1999/xlink" version="1.1"><rect x="0" y="0" width="900" height="600" fill="#001220"></rect><path d="M0 379L21.5 386.8C43 394.7 86 410.3 128.8 419C171.7 427.7 214.3 429.3 257.2 418.5C300 407.7 343 384.3 385.8 371.8C428.7 359.3 471.3 357.7 514.2 363.2C557 368.7 600 381.3 642.8 393.2C685.7 405 728.3 416 771.2 409.5C814 403 857 379 878.5 367L900 355L900 601L878.5 601C857 601 814 601 771.2 601C728.3 601 685.7 601 642.8 601C600 601 557 601 514.2 601C471.3 601 428.7 601 385.8 601C343 601 300 601 257.2 601C214.3 601 171.7 601 128.8 601C86 601 43 601 21.5 601L0 601Z" fill="#fa7268"></path><path d="M0 413L21.5 415C43 417 86 421 128.8 429C171.7 437 214.3 449 257.2 449.5C300 450 343 439 385.8 427.7C428.7 416.3 471.3 404.7 514.2 409.2C557 413.7 600 434.3 642.8 438.7C685.7 443 728.3 431 771.2 430.8C814 430.7 857 442.3 878.5 448.2L900 454L900 601L878.5 601C857 601 814 601 771.2 601C728.3 601 685.7 601 642.8 601C600 601 557 601 514.2 601C471.3 601 428.7 601 385.8 601C343 601 300 601 257.2 601C214.3 601 171.7 601 128.8 601C86 601 43 601 21.5 601L0 601Z" fill="#ef5f67"></path><path d="M0 499L21.5 500C43 501 86 503 128.8 500.5C171.7 498 214.3 491 257.2 488.3C300 485.7 343 487.3 385.8 490.2C428.7 493 471.3 497 514.2 493.7C557 490.3 600 479.7 642.8 479.8C685.7 480 728.3 491 771.2 491.3C814 491.7 857 481.3 878.5 476.2L900 471L900 601L878.5 601C857 601 814 601 771.2 601C728.3 601 685.7 601 642.8 601C600 601 557 601 514.2 601C471.3 601 428.7 601 385.8 601C343 601 300 601 257.2 601C214.3 601 171.7 601 128.8 601C86 601 43 601 21.5 601L0 601Z" fill="#e34c67"></path><path d="M0 524L21.5 519.2C43 514.3 86 504.7 128.8 502.3C171.7 500 214.3 505 257.2 507.7C300 510.3 343 510.7 385.8 514.7C428.7 518.7 471.3 526.3 514.2 530.8C557 535.3 600 536.7 642.8 531.8C685.7 527 728.3 516 771.2 508.3C814 500.7 857 496.3 878.5 494.2L900 492L900 601L878.5 601C857 601 814 601 771.2 601C728.3 601 685.7 601 642.8 601C600 601 557 601 514.2 601C471.3 601 428.7 601 385.8 601C343 601 300 601 257.2 601C214.3 601 171.7 601 128.8 601C86 601 43 601 21.5 601L0 601Z" fill="#d53867"></path><path d="M0 557L21.5 554C43 551 86 545 128.8 540.3C171.7 535.7 214.3 532.3 257.2 532.3C300 532.3 343 535.7 385.8 538.3C428.7 541 471.3 543 514.2 548.3C557 553.7 600 562.3 642.8 561C685.7 559.7 728.3 548.3 771.2 546.3C814 544.3 857 551.7 878.5 555.3L900 559L900 601L878.5 601C857 601 814 601 771.2 601C728.3 601 685.7 601 642.8 601C600 601 557 601 514.2 601C471.3 601 428.7 601 385.8 601C343 601 300 601 257.2 601C214.3 601 171.7 601 128.8 601C86 601 43 601 21.5 601L0 601Z" fill="#c62368"></path></svg>