<svg id="visual" viewBox="0 0 900 600" width="900" height="600" xmlns="http://www.w3.org/2000/svg" xmlns:xlink="http://www.w3.org/1999/xlink" version="1.1"><rect x="0" y="0" width="900" height="600" fill="#001220"></rect><path d="M0 384L21.5 393.7C43 403.3 86 422.7 128.8 428.8C171.7 435 214.3 428 257.2 414.7C300 401.3 343 381.7 385.8 385.8C428.7 390 471.3 418 514.2 426.2C557 434.3 600 422.7 642.8 413.3C685.7 404 728.3 397 771.2 389.2C814 381.3 857 372.7 878.5 368.3L900 364L900 601L878.5 601C857 601 814 601 771.2 601C728.3 601 685.7 601 642.8 601C600 601 557 601 514.2 601C471.3 601 428.7 601 385.8 601C343 601 300 601 257.2 601C214.3 601 171.7 601 128.8 601C86 601 43 601 21.5 601L0 601Z" fill="#fa7268"></path><path d="M0 449L21.5 441.7C43 434.3 86 419.7 128.8 413.7C171.7 407.7 214.3 410.3 257.2 417.7C300 425 343 437 385.8 447C428.7 457 471.3 465 514.2 458.2C557 451.3 600 429.7 642.8 425.8C685.7 422 728.3 436 771.2 438C814 440 857 430 878.5 425L900 420L900 601L878.5 601C857 601 814 601 771.2 601C728.3 601 685.7 601 642.8 601C600 601 557 601 514.2 601C471.3 601 428.7 601 385.8 601C343 601 300 601 257.2 601C214.3 601 171.7 601 128.8 601C86 601 43 601 21.5 601L0 601Z" fill="#ef5f67"></path><path d="M0 482L21.5 484.7C43 487.3 86 492.7 128.8 485.8C171.7 479 214.3 460 257.2 454.8C300 449.7 343 458.3 385.8 459.8C428.7 461.3 471.3 455.7 514.2 452.5C557 449.3 600 448.7 642.8 457.2C685.7 465.7 728.3 483.3 771.2 487.8C814 492.3 857 483.7 878.5 479.3L900 475L900 601L878.5 601C857 601 814 601 771.2 601C728.3 601 685.7 601 642.8 601C600 601 557 601 514.2 601C471.3 601 428.7 601 385.8 601C343 601 300 601 257.2 601C214.3 601 171.7 601 128.8 601C86 601 43 601 21.5 601L0 601Z" fill="#e34c67"></path><path d="M0 505L21.5 502C43 499 86 493 128.8 489.2C171.7 485.3 214.3 483.7 257.2 486.2C300 488.7 343 495.3 385.8 505C428.7 514.7 471.3 527.3 514.2 526.2C557 525 600 510 642.8 504.5C685.7 499 728.3 503 771.2 510.8C814 518.7 857 530.3 878.5 536.2L900 542L900 601L878.5 601C857 601 814 601 771.2 601C728.3 601 685.7 601 642.8 601C600 601 557 601 514.2 601C471.3 601 428.7 601 385.8 601C343 601 300 601 257.2 601C214.3 601 171.7 601 128.8 601C86 601 43 601 21.5 601L0 601Z" fill="#d53867"></path><path d="M0 537L21.5 537.7C43 538.3 86 539.7 128.8 544.8C171.7 550 214.3 559 257.2 562.2C300 565.3 343 562.7 385.8 556.2C428.7 549.7 471.3 539.3 514.2 536.7C557 534 600 539 642.8 544.2C685.7 549.3 728.3 554.7 771.2 556.3C814 558 857 556 878.5 555L900 554L900 601L878.5 601C857 601 814 601 771.2 601C728.3 601 685.7 601 642.8 601C600 601 557 601 514.2 601C471.3 601 428.7 601 385.8 601C343 601 300 601 257.2 601C214.3 601 171.7 601 128.8 601C86 601 43 601 21.5 601L0 601Z" fill="#c62368"></path></svg>