<svg id="visual" viewBox="0 0 900 75" width="900" height="75" xmlns="http://www.w3.org/2000/svg" xmlns:xlink="http://www.w3.org/1999/xlink" version="1.1"><path d="M0 20L13.7 20C27.3 20 54.7 20 82 18.2C109.3 16.3 136.7 12.7 163.8 11.8C191 11 218 13 245.2 15C272.3 17 299.7 19 327 19.3C354.3 19.7 381.7 18.3 409 17.8C436.3 17.3 463.7 17.7 491 16.5C518.3 15.3 545.7 12.7 573 12.8C600.3 13 627.7 16 654.8 16.2C682 16.3 709 13.7 736.2 13.2C763.3 12.7 790.7 14.3 818 15.8C845.3 17.3 872.7 18.7 886.3 19.3L900 20L900 0L886.3 0C872.7 0 845.3 0 818 0C790.7 0 763.3 0 736.2 0C709 0 682 0 654.8 0C627.7 0 600.3 0 573 0C545.7 0 518.3 0 491 0C463.7 0 436.3 0 409 0C381.7 0 354.3 0 327 0C299.7 0 272.3 0 245.2 0C218 0 191 0 163.8 0C136.7 0 109.3 0 82 0C54.7 0 27.3 0 13.7 0L0 0Z" fill="#ffffff"></path><path d="M0 27L13.7 26.8C27.3 26.7 54.7 26.3 82 24.8C109.3 23.3 136.7 20.7 163.8 21C191 21.3 218 24.7 245.2 27.2C272.3 29.7 299.7 31.3 327 31.5C354.3 31.7 381.7 30.3 409 28.8C436.3 27.3 463.7 25.7 491 24.5C518.3 23.3 545.7 22.7 573 23.7C600.3 24.7 627.7 27.3 654.8 27.7C682 28 709 26 736.2 25.8C763.3 25.7 790.7 27.3 818 28.2C845.3 29 872.7 29 886.3 29L900 29L900 18L886.3 17.3C872.7 16.7 845.3 15.3 818 13.8C790.7 12.3 763.3 10.7 736.2 11.2C709 11.7 682 14.3 654.8 14.2C627.7 14 600.3 11 573 10.8C545.7 10.7 518.3 13.3 491 14.5C463.7 15.7 436.3 15.3 409 15.8C381.7 16.3 354.3 17.7 327 17.3C299.7 17 272.3 15 245.2 13C218 11 191 9 163.8 9.8C136.7 10.7 109.3 14.3 82 16.2C54.7 18 27.3 18 13.7 18L0 18Z" fill="#95ebfd"></path><path d="M0 51L13.7 51.5C27.3 52 54.7 53 82 52.8C109.3 52.7 136.7 51.3 163.8 48.8C191 46.3 218 42.7 245.2 42.8C272.3 43 299.7 47 327 50C354.3 53 381.7 55 409 56.3C436.3 57.7 463.7 58.3 491 56.2C518.3 54 545.7 49 573 47.8C600.3 46.7 627.7 49.3 654.8 48.5C682 47.7 709 43.3 736.2 43.2C763.3 43 790.7 47 818 47.3C845.3 47.7 872.7 44.3 886.3 42.7L900 41L900 27L886.3 27C872.7 27 845.3 27 818 26.2C790.7 25.3 763.3 23.7 736.2 23.8C709 24 682 26 654.8 25.7C627.7 25.3 600.3 22.7 573 21.7C545.7 20.7 518.3 21.3 491 22.5C463.7 23.7 436.3 25.3 409 26.8C381.7 28.3 354.3 29.7 327 29.5C299.7 29.3 272.3 27.7 245.2 25.2C218 22.7 191 19.3 163.8 19C136.7 18.7 109.3 21.3 82 22.8C54.7 24.3 27.3 24.7 13.7 24.8L0 25Z" fill="#00ddfc"></path><path d="M0 63L13.7 63.5C27.3 64 54.7 65 82 65C109.3 65 136.7 64 163.8 63.7C191 63.3 218 63.7 245.2 64.7C272.3 65.7 299.7 67.3 327 68.2C354.3 69 381.7 69 409 69.3C436.3 69.7 463.7 70.3 491 70.3C518.3 70.3 545.7 69.7 573 69C600.3 68.3 627.7 67.7 654.8 67.3C682 67 709 67 736.2 66.5C763.3 66 790.7 65 818 65C845.3 65 872.7 66 886.3 66.5L900 67L900 39L886.3 40.7C872.7 42.3 845.3 45.7 818 45.3C790.7 45 763.3 41 736.2 41.2C709 41.3 682 45.7 654.8 46.5C627.7 47.3 600.3 44.7 573 45.8C545.7 47 518.3 52 491 54.2C463.7 56.3 436.3 55.7 409 54.3C381.7 53 354.3 51 327 48C299.7 45 272.3 41 245.2 40.8C218 40.7 191 44.3 163.8 46.8C136.7 49.3 109.3 50.7 82 50.8C54.7 51 27.3 50 13.7 49.5L0 49Z" fill="#95ebfd"></path><path d="M0 76L13.7 76C27.3 76 54.7 76 82 76C109.3 76 136.7 76 163.8 76C191 76 218 76 245.2 76C272.3 76 299.7 76 327 76C354.3 76 381.7 76 409 76C436.3 76 463.7 76 491 76C518.3 76 545.7 76 573 76C600.3 76 627.7 76 654.8 76C682 76 709 76 736.2 76C763.3 76 790.7 76 818 76C845.3 76 872.7 76 886.3 76L900 76L900 65L886.3 64.5C872.7 64 845.3 63 818 63C790.7 63 763.3 64 736.2 64.5C709 65 682 65 654.8 65.3C627.7 65.7 600.3 66.3 573 67C545.7 67.7 518.3 68.3 491 68.3C463.7 68.3 436.3 67.7 409 67.3C381.7 67 354.3 67 327 66.2C299.7 65.3 272.3 63.7 245.2 62.7C218 61.7 191 61.3 163.8 61.7C136.7 62 109.3 63 82 63C54.7 63 27.3 62 13.7 61.5L0 61Z" fill="#ffffff"></path></svg>