<svg id="visual" viewBox="0 0 900 75" width="900" height="75" xmlns="http://www.w3.org/2000/svg" xmlns:xlink="http://www.w3.org/1999/xlink" version="1.1"><path d="M0 21L18.8 21.7C37.7 22.3 75.3 23.7 112.8 23.3C150.3 23 187.7 21 225.2 21.3C262.7 21.7 300.3 24.3 337.8 25.8C375.3 27.3 412.7 27.7 450.2 27C487.7 26.3 525.3 24.7 562.8 23C600.3 21.3 637.7 19.7 675.2 19.8C712.7 20 750.3 22 787.8 21.5C825.3 21 862.7 18 881.3 16.5L900 15L900 0L881.3 0C862.7 0 825.3 0 787.8 0C750.3 0 712.7 0 675.2 0C637.7 0 600.3 0 562.8 0C525.3 0 487.7 0 450.2 0C412.7 0 375.3 0 337.8 0C300.3 0 262.7 0 225.2 0C187.7 0 150.3 0 112.8 0C75.3 0 37.7 0 18.8 0L0 0Z" fill="#001220"></path><path d="M0 31L18.8 31.5C37.7 32 75.3 33 112.8 32.3C150.3 31.7 187.7 29.3 225.2 29.7C262.7 30 300.3 33 337.8 35C375.3 37 412.7 38 450.2 37C487.7 36 525.3 33 562.8 31.2C600.3 29.3 637.7 28.7 675.2 29.5C712.7 30.3 750.3 32.7 787.8 32.3C825.3 32 862.7 29 881.3 27.5L900 26L900 13L881.3 14.5C862.7 16 825.3 19 787.8 19.5C750.3 20 712.7 18 675.2 17.8C637.7 17.7 600.3 19.3 562.8 21C525.3 22.7 487.7 24.3 450.2 25C412.7 25.7 375.3 25.3 337.8 23.8C300.3 22.3 262.7 19.7 225.2 19.3C187.7 19 150.3 21 112.8 21.3C75.3 21.7 37.7 20.3 18.8 19.7L0 19Z" fill="#4b2d66"></path><path d="M0 43L18.8 43.5C37.7 44 75.3 45 112.8 44.7C150.3 44.3 187.7 42.7 225.2 43C262.7 43.3 300.3 45.7 337.8 46.8C375.3 48 412.7 48 450.2 47.5C487.7 47 525.3 46 562.8 44.5C600.3 43 637.7 41 675.2 41.5C712.7 42 750.3 45 787.8 44.2C825.3 43.3 862.7 38.7 881.3 36.3L900 34L900 24L881.3 25.5C862.7 27 825.3 30 787.8 30.3C750.3 30.7 712.7 28.3 675.2 27.5C637.7 26.7 600.3 27.3 562.8 29.2C525.3 31 487.7 34 450.2 35C412.7 36 375.3 35 337.8 33C300.3 31 262.7 28 225.2 27.7C187.7 27.3 150.3 29.7 112.8 30.3C75.3 31 37.7 30 18.8 29.5L0 29Z" fill="#c62368"></path><path d="M0 49L18.8 49.8C37.7 50.7 75.3 52.3 112.8 52.2C150.3 52 187.7 50 225.2 50.2C262.7 50.3 300.3 52.7 337.8 54.2C375.3 55.7 412.7 56.3 450.2 55.7C487.7 55 525.3 53 562.8 51.5C600.3 50 637.7 49 675.2 49.5C712.7 50 750.3 52 787.8 51.3C825.3 50.7 862.7 47.3 881.3 45.7L900 44L900 32L881.3 34.3C862.7 36.7 825.3 41.3 787.8 42.2C750.3 43 712.7 40 675.2 39.5C637.7 39 600.3 41 562.8 42.5C525.3 44 487.7 45 450.2 45.5C412.7 46 375.3 46 337.8 44.8C300.3 43.7 262.7 41.3 225.2 41C187.7 40.7 150.3 42.3 112.8 42.7C75.3 43 37.7 42 18.8 41.5L0 41Z" fill="#c62368"></path><path d="M0 70L18.8 69.7C37.7 69.3 75.3 68.7 112.8 68.5C150.3 68.3 187.7 68.7 225.2 69.2C262.7 69.7 300.3 70.3 337.8 70.7C375.3 71 412.7 71 450.2 70.7C487.7 70.3 525.3 69.7 562.8 69.7C600.3 69.7 637.7 70.3 675.2 70.5C712.7 70.7 750.3 70.3 787.8 69.8C825.3 69.3 862.7 68.7 881.3 68.3L900 68L900 42L881.3 43.7C862.7 45.3 825.3 48.7 787.8 49.3C750.3 50 712.7 48 675.2 47.5C637.7 47 600.3 48 562.8 49.5C525.3 51 487.7 53 450.2 53.7C412.7 54.3 375.3 53.7 337.8 52.2C300.3 50.7 262.7 48.3 225.2 48.2C187.7 48 150.3 50 112.8 50.2C75.3 50.3 37.7 48.7 18.8 47.8L0 47Z" fill="#4b2d66"></path><path d="M0 76L18.8 76C37.7 76 75.3 76 112.8 76C150.3 76 187.7 76 225.2 76C262.7 76 300.3 76 337.8 76C375.3 76 412.7 76 450.2 76C487.7 76 525.3 76 562.8 76C600.3 76 637.7 76 675.2 76C712.7 76 750.3 76 787.8 76C825.3 76 862.7 76 881.3 76L900 76L900 66L881.3 66.3C862.7 66.7 825.3 67.3 787.8 67.8C750.3 68.3 712.7 68.7 675.2 68.5C637.7 68.3 600.3 67.7 562.8 67.7C525.3 67.7 487.7 68.3 450.2 68.7C412.7 69 375.3 69 337.8 68.7C300.3 68.3 262.7 67.7 225.2 67.2C187.7 66.7 150.3 66.3 112.8 66.5C75.3 66.7 37.7 67.3 18.8 67.7L0 68Z" fill="#001220"></path></svg>